<svg width="121" height="131" viewBox="0 0 121 131" fill="none" xmlns="http://www.w3.org/2000/svg">
<g opacity="0.3" filter="url(#filter0_f_17075_23135)">
<path d="M56.1314 15.2394C58.7502 13.7275 61.9766 13.7275 64.5954 15.2394L94.113 32.2814C96.7318 33.7934 98.345 36.5876 98.345 39.6114V73.6954C98.345 76.7193 96.7318 79.5135 94.113 81.0255L64.5954 98.0674C61.9766 99.5794 58.7502 99.5794 56.1314 98.0674L26.6138 81.0255C23.9951 79.5135 22.3818 76.7193 22.3818 73.6954V39.6114C22.3818 36.5876 23.9951 33.7934 26.6138 32.2814L56.1314 15.2394Z" fill="#6B3D0F"/>
</g>
<g opacity="0.4" filter="url(#filter1_f_17075_23135)">
<path d="M56.1314 22.2941C58.7502 20.7822 61.9766 20.7822 64.5954 22.2941L95.3347 40.0414C97.9534 41.5534 99.5667 44.3476 99.5667 47.3715V82.8661C99.5667 85.89 97.9534 88.6842 95.3347 90.1961L64.5954 107.943C61.9766 109.455 58.7502 109.455 56.1314 107.943L25.3921 90.1961C22.7734 88.6842 21.1602 85.89 21.1602 82.8661V47.3715C21.1602 44.3476 22.7734 41.5534 25.3921 40.0414L56.1314 22.2941Z" fill="#6B3D0F"/>
</g>
<path d="M56.1314 3.95427C58.7501 2.44233 61.9766 2.44233 64.5954 3.95427L98.9996 23.8176C101.618 25.3295 103.232 28.1237 103.232 31.1476V70.8742C103.232 73.8981 101.618 76.6923 98.9996 78.2043L64.5954 98.0676C61.9766 99.5795 58.7501 99.5795 56.1314 98.0676L21.7271 78.2043C19.1083 76.6923 17.4951 73.8981 17.4951 70.8743V31.1476C17.4951 28.1237 19.1083 25.3295 21.7271 23.8176L56.1314 3.95427Z" fill="url(#paint0_linear_17075_23135)"/>
<path d="M76.5981 46.3501C77.3255 41.4864 73.6226 38.872 68.5592 37.1279L70.2018 30.5396L66.1913 29.5402L64.5922 35.9551C63.5379 35.6921 62.4551 35.4444 61.379 35.1987L62.9896 28.7415L58.9816 27.7422L57.3381 34.3284C56.4656 34.1297 55.6086 33.9334 54.7772 33.7265L54.7819 33.7058L49.2513 32.3247L48.1844 36.6082C48.1844 36.6082 51.1599 37.2903 51.0972 37.3323C52.7212 37.7376 53.0149 38.8127 52.9662 39.6648L51.0951 47.1705C51.2069 47.1989 51.3519 47.24 51.512 47.3043C51.3782 47.271 51.2358 47.2348 51.0881 47.1994L48.4654 57.7138C48.267 58.2072 47.7632 58.9477 46.6277 58.6665C46.6679 58.7247 43.7128 57.939 43.7128 57.939L41.7217 62.5298L46.9407 63.8309C47.9116 64.0743 48.8631 64.3291 49.8001 64.5686L48.1405 71.2326L52.1464 72.2319L53.7899 65.6387C54.8842 65.9358 55.9463 66.2098 56.986 66.4682L55.348 73.0302L59.3587 74.0296L61.0181 67.3782C67.8569 68.6724 72.9991 68.1506 75.1636 61.9649C76.9077 56.9847 75.0768 54.1122 71.4789 52.2389C74.0994 51.6346 76.0718 49.9105 76.5981 46.3501ZM67.435 59.1992C66.1955 64.1794 57.8104 61.4872 55.0918 60.8121L57.2941 51.9836C60.0125 52.6623 68.7301 54.0053 67.435 59.1992ZM68.6753 46.278C67.5447 50.808 60.5656 48.5065 58.3017 47.9422L60.2984 39.9353C62.5623 40.4996 69.8527 41.5529 68.6753 46.278Z" fill="white"/>
<defs>
<filter id="filter0_f_17075_23135" x="13.9179" y="5.64149" width="92.8908" height="102.026" filterUnits="userSpaceOnUse" color-interpolation-filters="sRGB">
<feFlood flood-opacity="0" result="BackgroundImageFix"/>
<feBlend mode="normal" in="SourceGraphic" in2="BackgroundImageFix" result="shape"/>
<feGaussianBlur stdDeviation="4.23199" result="effect1_foregroundBlur_17075_23135"/>
</filter>
<filter id="filter1_f_17075_23135" x="0.00021553" y="0.00021553" width="120.726" height="130.238" filterUnits="userSpaceOnUse" color-interpolation-filters="sRGB">
<feFlood flood-opacity="0" result="BackgroundImageFix"/>
<feBlend mode="normal" in="SourceGraphic" in2="BackgroundImageFix" result="shape"/>
<feGaussianBlur stdDeviation="10.58" result="effect1_foregroundBlur_17075_23135"/>
</filter>
<linearGradient id="paint0_linear_17075_23135" x1="60.3634" y1="2.82031" x2="60.3634" y2="99.2015" gradientUnits="userSpaceOnUse">
<stop stop-color="#F4BA45"/>
<stop offset="1" stop-color="#F19C3B"/>
</linearGradient>
</defs>
</svg>
