<svg width="121" height="121" viewBox="0 0 121 121" fill="none" xmlns="http://www.w3.org/2000/svg">
<g opacity="0.3" filter="url(#filter0_f_17016_20114)">
<path d="M56.1314 15.2394C58.7502 13.7275 61.9766 13.7275 64.5954 15.2394L94.113 32.2814C96.7318 33.7934 98.345 36.5876 98.345 39.6114V73.6954C98.345 76.7193 96.7318 79.5135 94.113 81.0255L64.5954 98.0674C61.9766 99.5794 58.7502 99.5794 56.1314 98.0674L26.6138 81.0255C23.9951 79.5135 22.3818 76.7193 22.3818 73.6954V39.6114C22.3818 36.5876 23.9951 33.7934 26.6138 32.2814L56.1314 15.2394Z" fill="#451FAD"/>
</g>
<g opacity="0.4" filter="url(#filter1_f_17016_20114)">
<path d="M56.1314 22.2941C58.7502 20.7822 61.9766 20.7822 64.5954 22.2941L95.3347 40.0414C97.9534 41.5534 99.5667 44.3476 99.5667 47.3715V82.8661C99.5667 85.89 97.9534 88.6842 95.3347 90.1961L64.5954 107.943C61.9766 109.455 58.7502 109.455 56.1314 107.943L25.3921 90.1961C22.7734 88.6842 21.1602 85.89 21.1602 82.8661V47.3715C21.1602 44.3476 22.7734 41.5534 25.3921 40.0414L56.1314 22.2941Z" fill="#451FAD"/>
</g>
<path d="M56.1314 3.95427C58.7501 2.44233 61.9766 2.44233 64.5954 3.95427L98.9996 23.8176C101.618 25.3295 103.232 28.1237 103.232 31.1476V70.8742C103.232 73.8981 101.618 76.6923 98.9996 78.2043L64.5954 98.0676C61.9766 99.5795 58.7501 99.5795 56.1314 98.0676L21.7271 78.2043C19.1083 76.6923 17.4951 73.8981 17.4951 70.8743V31.1476C17.4951 28.1237 19.1083 25.3295 21.7271 23.8176L56.1314 3.95427Z" fill="url(#paint0_linear_17016_20114)"/>
<path d="M46.351 51.3139L60.5573 27.7422V27.7534L60.5606 27.7422L74.7646 51.3107L74.7722 51.3141L60.5658 59.7116V59.7091L60.5606 59.7121L60.5573 59.7088V59.7116L46.351 51.3139Z" fill="white"/>
<path d="M60.5573 74.0197V74.0296L46.3506 54.01L60.5573 62.4031V62.4073L60.5607 62.4031L74.7758 54.01L60.5607 74.0296L60.5573 74.0197Z" fill="white"/>
<defs>
<filter id="filter0_f_17016_20114" x="13.9179" y="5.64149" width="92.8908" height="102.026" filterUnits="userSpaceOnUse" color-interpolation-filters="sRGB">
<feFlood flood-opacity="0" result="BackgroundImageFix"/>
<feBlend mode="normal" in="SourceGraphic" in2="BackgroundImageFix" result="shape"/>
<feGaussianBlur stdDeviation="4.23199" result="effect1_foregroundBlur_17016_20114"/>
</filter>
<filter id="filter1_f_17016_20114" x="0.00021553" y="0.00021553" width="120.726" height="130.238" filterUnits="userSpaceOnUse" color-interpolation-filters="sRGB">
<feFlood flood-opacity="0" result="BackgroundImageFix"/>
<feBlend mode="normal" in="SourceGraphic" in2="BackgroundImageFix" result="shape"/>
<feGaussianBlur stdDeviation="10.58" result="effect1_foregroundBlur_17016_20114"/>
</filter>
<linearGradient id="paint0_linear_17016_20114" x1="60.3634" y1="2.82031" x2="60.3634" y2="99.2015" gradientUnits="userSpaceOnUse">
<stop stop-color="#9A7DE8"/>
<stop offset="1" stop-color="#7852E0"/>
</linearGradient>
</defs>
</svg>
