<svg width="121" height="131" viewBox="0 0 121 131" fill="none" xmlns="http://www.w3.org/2000/svg">
<g opacity="0.3" filter="url(#filter0_f_17016_20096)">
<path d="M56.1321 15.2395C58.7509 13.7275 61.9775 13.7275 64.5964 15.2395L94.1135 32.2812C96.7323 33.7932 98.3456 36.5875 98.3456 39.6115V73.6949C98.3456 76.7189 96.7323 79.5132 94.1135 81.0252L64.5964 98.0669C61.9775 99.5789 58.7509 99.5789 56.1321 98.0669L26.615 81.0252C23.9961 79.5132 22.3828 76.7189 22.3828 73.6949V39.6115C22.3828 36.5875 23.9961 33.7932 26.615 32.2812L56.1321 15.2395Z" fill="#931A42"/>
</g>
<g opacity="0.4" filter="url(#filter1_f_17016_20096)">
<path d="M56.1321 22.2942C58.751 20.7822 61.9775 20.7822 64.5964 22.2942L95.3352 40.0412C97.9541 41.5532 99.5674 44.3475 99.5674 47.3715V82.8657C99.5674 85.8896 97.9541 88.6839 95.3352 90.1959L64.5964 107.943C61.9775 109.455 58.751 109.455 56.1321 107.943L25.3933 90.1959C22.7744 88.6839 21.1611 85.8896 21.1611 82.8657V47.3715C21.1611 44.3475 22.7744 41.5532 25.3933 40.0412L56.1321 22.2942Z" fill="#931A42"/>
</g>
<path d="M56.1322 3.95431C58.7511 2.44231 61.9776 2.44231 64.5965 3.95431L99.0005 23.8175C101.619 25.3295 103.233 28.1237 103.233 31.1477V70.874C103.233 73.898 101.619 76.6923 99.0005 78.2043L64.5965 98.0675C61.9776 99.5795 58.7511 99.5795 56.1322 98.0675L21.7282 78.2043C19.1094 76.6923 17.4961 73.898 17.4961 70.874V31.1477C17.4961 28.1237 19.1094 25.3295 21.7282 23.8175L56.1322 3.95431Z" fill="url(#paint0_linear_17016_20096)"/>
<path d="M81.6184 62.3786L74.4863 69.9126C74.3313 70.0763 74.1437 70.2067 73.9353 70.2959C73.7268 70.3851 73.5019 70.4311 73.2747 70.431H39.4657C39.3043 70.431 39.1465 70.3845 39.0116 70.2974C38.8767 70.2103 38.7706 70.0862 38.7063 69.9405C38.642 69.7948 38.6223 69.6337 38.6497 69.4771C38.677 69.3205 38.7503 69.1752 38.8603 69.059L45.9977 61.5249C46.1523 61.3617 46.3393 61.2315 46.547 61.1424C46.7548 61.0532 46.979 61.007 47.2056 61.0066H81.0128C81.1741 61.0066 81.3319 61.0531 81.4669 61.1402C81.6017 61.2273 81.7078 61.3514 81.7724 61.4971C81.8365 61.6428 81.8562 61.8039 81.8288 61.9605C81.8014 62.1171 81.7283 62.2624 81.6184 62.3786ZM74.4863 47.2072C74.3313 47.0435 74.1437 46.913 73.9353 46.8239C73.7268 46.7347 73.5019 46.6887 73.2747 46.6889H39.4657C39.3043 46.6889 39.1465 46.7353 39.0116 46.8224C38.8767 46.9096 38.7706 47.0336 38.7063 47.1793C38.642 47.3251 38.6223 47.4861 38.6497 47.6427C38.677 47.7993 38.7503 47.9446 38.8603 48.0608L45.9977 55.5949C46.1523 55.7581 46.3393 55.8883 46.547 55.9775C46.7548 56.0666 46.979 56.1128 47.2056 56.1132H81.0128C81.1741 56.1132 81.3319 56.0668 81.4669 55.9796C81.6017 55.8925 81.7078 55.7684 81.7724 55.6227C81.8365 55.477 81.8562 55.3159 81.8288 55.1593C81.8014 55.0027 81.7283 54.8574 81.6184 54.7412L74.4863 47.2072ZM39.4657 41.7955H73.2747C73.5019 41.7955 73.7268 41.7496 73.9353 41.6604C74.1437 41.5712 74.3313 41.4408 74.4863 41.2771L81.6184 33.7431C81.7283 33.6269 81.8014 33.4816 81.8288 33.325C81.8562 33.1684 81.8365 33.0073 81.7724 32.8616C81.7078 32.7159 81.6017 32.5918 81.4669 32.5047C81.3319 32.4175 81.1741 32.3711 81.0128 32.3711H47.2056C46.979 32.3715 46.7548 32.4177 46.547 32.5068C46.3393 32.596 46.1523 32.7262 45.9977 32.8894L38.8621 40.4235C38.7522 40.5395 38.679 40.6847 38.6516 40.8411C38.6242 40.9975 38.6437 41.1585 38.7078 41.3041C38.7719 41.4498 38.8777 41.5738 39.0123 41.6611C39.1469 41.7484 39.3045 41.7951 39.4657 41.7955Z" fill="white"/>
<defs>
<filter id="filter0_f_17016_20096" x="13.9185" y="5.64118" width="92.8915" height="102.022" filterUnits="userSpaceOnUse" color-interpolation-filters="sRGB">
<feFlood flood-opacity="0" result="BackgroundImageFix"/>
<feBlend mode="normal" in="SourceGraphic" in2="BackgroundImageFix" result="shape"/>
<feGaussianBlur stdDeviation="4.23214" result="effect1_foregroundBlur_17016_20096"/>
</filter>
<filter id="filter1_f_17016_20096" x="0.000417709" y="-0.000558853" width="120.728" height="130.239" filterUnits="userSpaceOnUse" color-interpolation-filters="sRGB">
<feFlood flood-opacity="0" result="BackgroundImageFix"/>
<feBlend mode="normal" in="SourceGraphic" in2="BackgroundImageFix" result="shape"/>
<feGaussianBlur stdDeviation="10.5804" result="effect1_foregroundBlur_17016_20096"/>
</filter>
<linearGradient id="paint0_linear_17016_20096" x1="60.3643" y1="2.82031" x2="60.3643" y2="99.2015" gradientUnits="userSpaceOnUse">
<stop stop-color="#E3638E"/>
<stop offset="1" stop-color="#DC386E"/>
</linearGradient>
</defs>
</svg>
