<svg width="139" height="70" viewBox="0 0 139 70" fill="none" xmlns="http://www.w3.org/2000/svg">
<rect y="22.5318" width="132.599" height="48" rx="15" transform="rotate(-9.78343 0 22.5318)" fill="white" fill-opacity="0.1"/>
<rect x="4.62158" y="25.7935" width="124.599" height="40" rx="15" transform="rotate(-9.78343 4.62158 25.7935)" fill="#E03A6A"/>
<path d="M58.4194 41.8842L48.5648 43.5834L48.244 41.7229C47.934 39.9254 48.6093 38.851 50.7547 37.7342L53.4667 36.3249C54.1066 35.9873 54.3393 35.7361 54.255 35.2473C54.1626 34.7112 53.8978 34.3997 52.2896 34.677C50.5236 34.9815 50.2056 35.4909 50.3714 36.4527L50.4067 36.6577L47.5056 37.158L47.4648 36.9215C47.0977 34.7929 48.2139 32.6034 51.935 31.9617C55.2777 31.3853 56.855 32.6233 57.2275 34.7834C57.57 36.7701 56.406 37.9288 54.5955 38.7281L52.331 39.7193C51.6671 40.0123 51.1974 40.207 51.2898 40.7431L54.1915 39.8693L57.9599 39.2195L58.4194 41.8842ZM64.5825 40.9838C60.9876 41.6037 58.7333 39.7356 58.1733 36.4875C57.6159 33.2552 59.1116 30.7243 62.7065 30.1044C66.2857 29.4872 68.5427 31.3711 69.1 34.6034C69.6601 37.8515 68.1617 40.3666 64.5825 40.9838ZM64.085 38.0984C65.8825 37.7885 66.2522 37.1077 65.915 35.1526C65.5779 33.1974 65.0016 32.6798 63.2041 32.9898C61.3908 33.3024 61.0211 33.9832 61.3583 35.9383C61.6954 37.8935 62.2717 38.4111 64.085 38.0984ZM80.392 38.0954L70.5374 39.7946L70.2166 37.9341C69.9067 36.1366 70.5819 35.0623 72.7273 33.9454L75.4393 32.5361C76.0792 32.1985 76.3119 31.9473 76.2277 31.4585C76.1352 30.9224 75.8704 30.6109 74.2622 30.8882C72.4962 31.1927 72.1782 31.7021 72.344 32.6639L72.3794 32.8689L69.4782 33.3692L69.4374 33.1327C69.0704 31.0041 70.1865 28.8146 73.9076 28.1729C77.2503 27.5966 78.8276 28.8345 79.2001 30.9947C79.5426 32.9813 78.3786 34.14 76.5681 34.9393L74.3036 35.9305C73.6397 36.2235 73.17 36.4182 73.2624 36.9543L76.1641 36.0805L79.9325 35.4307L80.392 38.0954ZM86.5236 37.2005C83.0233 37.804 81.0621 37.0706 80.6325 34.5794L80.6162 34.4848L83.6751 33.9573L83.6914 34.0519C83.7974 34.6669 84.1824 34.8278 86.106 34.4961C87.8246 34.1997 88.0541 33.8355 87.9045 32.9683C87.7496 32.0695 87.4114 31.8031 85.6927 32.0995C84.321 32.336 83.6462 32.566 83.5364 33.1532L80.5249 33.6725L80.0708 27.2726L89.2473 25.6902L89.7068 28.3549L83.1634 29.4832L83.252 31.6923L83.4097 31.6651C83.5375 30.9936 84.3943 29.9366 86.5702 29.5614C89.298 29.0911 90.6746 30.2013 91.0525 32.393C91.4576 34.7423 90.2131 36.5643 86.5236 37.2005Z" fill="white"/>
</svg>
