<svg width="24" height="24" viewBox="0 0 24 24" fill="none" xmlns="http://www.w3.org/2000/svg">
<path d="M23.641 14.9029C22.0381 21.3315 15.5262 25.2438 9.09606 23.6407C2.66863 22.0381 -1.24415 15.5265 0.359423 9.09837C1.96159 2.66903 8.47349 -1.24361 14.9016 0.359081C21.3313 1.96177 25.2438 8.47405 23.6408 14.903L23.6409 14.9029H23.641Z" fill="white"/>
<g clip-path="url(#clip0_7049_92270)">
<path d="M8.52843 11.9999L12.2951 5.75V5.75297L12.296 5.75L16.0621 11.999L16.0641 11.9999L12.2974 14.2264V14.2258L12.296 14.2266L12.2951 14.2257V14.2264L8.52843 11.9999Z" fill="#8D6DE6"/>
<path d="M12.2951 18.0201V18.0227L8.52832 12.7147L12.2951 14.9401V14.9412L12.296 14.9401L16.065 12.7147L12.296 18.0227L12.2951 18.0201Z" fill="#8D6DE6"/>
</g>
<defs>
<clipPath id="clip0_7049_92270">
<rect width="13.0909" height="13.0909" fill="white" transform="translate(5.66504 5.34375)"/>
</clipPath>
</defs>
</svg>
