<svg width="178" height="25" viewBox="0 0 178 25" fill="none" xmlns="http://www.w3.org/2000/svg">
<path d="M9.64096 19.5648C3.82805 19.5648 0.283598 17.4948 0.283598 12.6744V12.5043H5.61446V13.0997C5.61446 14.3757 6.06815 14.716 9.64096 14.716C12.8735 14.716 13.2138 14.4608 13.2138 13.6101C13.2138 12.9296 12.8451 12.646 11.2856 12.4475L5.3309 11.6536C1.78645 11.1715 4.15399e-05 9.27171 4.15399e-05 6.2093C4.15399e-05 3.17525 2.35356 -0.000580495 9.21562 -0.000580495C15.2554 -0.000580495 18.1476 2.63649 18.1476 6.88984V7.05997H12.8168V6.63464C12.8168 5.27357 12.2213 4.81988 8.64851 4.81988C5.92637 4.81988 5.3309 5.1885 5.3309 6.01081C5.3309 6.60628 5.67117 6.88984 6.69197 7.03162L12.6467 7.91064C17.297 8.59118 18.5446 10.973 18.5446 13.4116C18.5446 16.6725 16.0493 19.5648 9.64096 19.5648ZM25.14 24.1017H19.8091V4.99001H24.7997V8.84638H25.0833C25.5369 6.01081 27.2383 4.70645 30.5843 4.70645C34.951 4.70645 37.3612 7.51366 37.3612 12.1356C37.3612 16.786 35.0077 19.5648 30.8111 19.5648C27.4368 19.5648 25.8489 17.9769 25.4235 15.595H25.14V24.1017ZM25.14 12.3058C25.14 14.319 26.2742 14.716 28.6561 14.716C31.123 14.716 31.9737 14.0355 31.9737 12.1356C31.9737 10.2358 31.123 9.58362 28.6561 9.58362C26.2742 9.58362 25.14 10.0373 25.14 12.1073V12.3058ZM43.3994 19.5648C40.1669 19.5648 38.3521 18.0903 38.3521 15.6517C38.3521 13.6385 39.7416 12.1923 42.9741 11.8804L48.787 11.3133V11.0298C48.787 9.58362 48.1632 9.35678 46.2634 9.35678C44.5053 9.35678 43.9666 9.69705 43.9666 10.888V11.0014H38.6357V10.9447C38.6357 7.14504 41.8115 4.70645 46.6603 4.70645C51.6509 4.70645 54.0612 7.14504 54.0612 11.1432V19.2812H49.0706V16.2756H48.787C48.2483 18.2888 46.4902 19.5648 43.3994 19.5648ZM43.7114 15.3115C43.7114 15.7652 44.1651 15.8502 44.9874 15.8502C47.5677 15.8502 48.6169 15.5383 48.7587 14.2623L44.3919 14.7727C43.9099 14.8294 43.7114 14.9995 43.7114 15.3115ZM63.666 19.5648C58.5903 19.5648 55.3578 16.7576 55.3578 12.1356C55.3578 7.48531 58.5903 4.70645 63.666 4.70645C68.5431 4.70645 71.6623 7.20175 71.6623 11.0298V11.4835H66.3598V11.2566C66.3598 9.78211 65.2822 9.4702 63.5525 9.4702C61.596 9.4702 60.6603 9.89553 60.6603 12.1356C60.6603 14.3474 61.596 14.7727 63.5525 14.7727C65.2822 14.7727 66.3598 14.4891 66.3598 13.0147V12.7595H71.6623V13.2415C71.6623 17.0412 68.5431 19.5648 63.666 19.5648ZM81.0546 19.5648C76.2058 19.5648 72.8031 17.4948 72.8031 12.1356C72.8031 7.48531 76.1774 4.70645 80.9412 4.70645C85.8751 4.70645 89.0226 7.17339 89.0226 11.767C89.0226 12.2491 88.9942 12.6177 88.9375 13.1281H77.737C77.8221 14.8578 78.5877 15.3398 80.8561 15.3398C83.0112 15.3398 83.5783 14.9712 83.5783 14.1205V13.8086H88.9091V14.1489C88.9091 17.3247 85.8751 19.5648 81.0546 19.5648ZM80.8278 8.78967C78.8712 8.78967 78.0489 9.215 77.8221 10.4343H83.8618C83.6633 9.215 82.8127 8.78967 80.8278 8.78967ZM102.075 19.2812H96.7439V5.07508H90.0236V0.282976H108.767V5.07508H102.075V19.2812ZM115.385 19.2812H110.054V4.99001H115.045V8.73295H115.328C115.725 6.37944 117.2 4.70645 120.035 4.70645C123.183 4.70645 124.431 6.77642 124.431 9.64033V12.4759H119.1V10.8029C119.1 9.61198 118.646 9.18664 117.257 9.18664C115.81 9.18664 115.385 9.61198 115.385 10.7462V19.2812ZM130.183 19.5648C126.951 19.5648 125.136 18.0903 125.136 15.6517C125.136 13.6385 126.525 12.1923 129.758 11.8804L135.571 11.3133V11.0298C135.571 9.58362 134.947 9.35678 133.047 9.35678C131.289 9.35678 130.75 9.69705 130.75 10.888V11.0014H125.419V10.9447C125.419 7.14504 128.595 4.70645 133.444 4.70645C138.435 4.70645 140.845 7.14504 140.845 11.1432V19.2812H135.854V16.2756H135.571C135.032 18.2888 133.274 19.5648 130.183 19.5648ZM130.495 15.3115C130.495 15.7652 130.949 15.8502 131.771 15.8502C134.351 15.8502 135.401 15.5383 135.542 14.2623L131.176 14.7727C130.694 14.8294 130.495 14.9995 130.495 15.3115ZM148.919 19.5648C144.552 19.5648 142.142 16.7576 142.142 12.1356C142.142 7.48531 144.495 4.70645 148.692 4.70645C152.066 4.70645 153.654 6.29437 154.079 8.67624H154.363V0.282976H159.694V19.2812H154.703V15.4249H154.42C153.966 18.2604 152.264 19.5648 148.919 19.5648ZM147.529 12.1356C147.529 14.0355 148.38 14.6876 150.847 14.6876C153.229 14.6876 154.363 14.2339 154.363 12.164V11.9655C154.363 9.95225 153.229 9.55527 150.847 9.55527C148.38 9.55527 147.529 10.2358 147.529 12.1356ZM169.361 19.5648C164.513 19.5648 161.11 17.4948 161.11 12.1356C161.11 7.48531 164.484 4.70645 169.248 4.70645C174.182 4.70645 177.329 7.17339 177.329 11.767C177.329 12.2491 177.301 12.6177 177.244 13.1281H166.044C166.129 14.8578 166.894 15.3398 169.163 15.3398C171.318 15.3398 171.885 14.9712 171.885 14.1205V13.8086H177.216V14.1489C177.216 17.3247 174.182 19.5648 169.361 19.5648ZM169.135 8.78967C167.178 8.78967 166.356 9.215 166.129 10.4343H172.169C171.97 9.215 171.119 8.78967 169.135 8.78967Z" fill="#C79101"/>
</svg>
