<svg width="97" height="127" viewBox="0 0 97 127" fill="none" xmlns="http://www.w3.org/2000/svg">
<path fill-rule="evenodd" clip-rule="evenodd" d="M68.3097 120.749C68.159 120.749 68.0009 120.715 67.8503 120.644L62.6989 118.125V115.523L67.8503 118.042C68.0009 118.114 68.159 118.148 68.3097 118.148C68.8557 118.148 69.349 117.707 69.349 117.105V119.706C69.349 120.309 68.8557 120.749 68.3097 120.749ZM28.2659 120.749C27.7199 120.749 27.2266 120.309 27.2266 119.706V94.3359V117.105C27.2266 117.707 27.7199 118.148 28.2659 118.148C28.4165 118.148 28.5747 118.114 28.7253 118.042L33.8767 115.523V118.125L28.7253 120.644C28.5747 120.719 28.4165 120.749 28.2659 120.749Z" fill="#E64A02"/>
<path fill-rule="evenodd" clip-rule="evenodd" d="M61.6577 126.822C61.5071 126.822 61.349 126.788 61.1983 126.716L49.4269 120.959C49.0692 120.782 48.6776 120.696 48.286 120.696C47.8906 120.696 47.4989 120.782 47.1412 120.959L35.3698 126.716C35.2192 126.788 35.061 126.822 34.9104 126.822C34.3644 126.822 33.8711 126.381 33.8711 125.779V118.124V123.177C33.8711 123.779 34.3644 124.22 34.9104 124.22C35.061 124.22 35.2192 124.186 35.3698 124.114L47.1412 118.357C47.4989 118.18 47.8906 118.094 48.286 118.094C48.6776 118.094 49.0654 118.18 49.4269 118.357L61.1983 124.114C61.349 124.186 61.5071 124.22 61.6577 124.22C62.2038 124.22 62.6971 123.779 62.6971 123.177V125.779C62.6971 126.381 62.2038 126.822 61.6577 126.822Z" fill="#E64A02"/>
<path d="M67.8501 118.043L49.4286 109.037C48.7094 108.683 47.8621 108.683 47.1429 109.037L28.7214 118.043C28.0285 118.382 27.2227 117.877 27.2227 117.109V67.8633H69.3451V117.109C69.3451 117.877 68.5392 118.382 67.8464 118.043H67.8501Z" fill="#681DD0"/>
<path d="M61.1983 124.111L49.4269 118.354C48.7077 118 47.8604 118 47.1412 118.354L35.3698 124.111C34.6769 124.45 33.8711 123.946 33.8711 123.177V63.6484H62.6933V123.177C62.6933 123.946 61.8874 124.45 61.1946 124.111H61.1983Z" fill="#AE5CFF"/>
<path fill-rule="evenodd" clip-rule="evenodd" d="M27.2256 94.3438C11.1086 86.5195 0 70.0013 0 50.885C0 50.4519 0.00376564 50.0152 0.0150626 49.5859C0.508361 68.1487 11.4739 84.0984 27.2256 91.7457V94.3475V94.3438Z" fill="#E64A02"/>
<path fill-rule="evenodd" clip-rule="evenodd" d="M69.3457 94.3397V91.7379C85.0974 84.0906 96.0667 68.1409 96.5562 49.5781C96.5675 50.0111 96.5713 50.4441 96.5713 50.8771C96.5713 69.9935 85.4626 86.5117 69.3457 94.336V94.3397Z" fill="#E64A02"/>
<path d="M33.8767 96.9836C31.5834 96.2682 29.3617 95.3834 27.2266 94.3479V91.7461C29.3617 92.7815 31.5834 93.6664 33.8767 94.3818V96.9836ZM62.6989 96.9836V94.3818C64.9921 93.6664 67.2139 92.7815 69.349 91.7461V94.3479C67.2139 95.3834 64.9921 96.2682 62.6989 96.9836Z" fill="#4B159D"/>
<path d="M48.2899 99.1644C43.2665 99.1644 38.4277 98.4001 33.875 96.9768V94.375C38.4277 95.7945 43.2665 96.5626 48.2899 96.5626C53.3057 96.5626 58.1445 95.7983 62.6972 94.375V96.9768C58.1445 98.4001 53.3057 99.1644 48.2899 99.1644Z" fill="#7D43C0"/>
<path fill-rule="evenodd" clip-rule="evenodd" d="M48.2905 96.5642C43.2672 96.5642 38.4283 95.7999 33.8757 94.3766C31.5824 93.6612 29.3607 92.7764 27.2256 91.7409C11.4739 84.0937 0.508361 68.144 0.0150626 49.5811C0.00376564 49.1481 0 48.7151 0 48.2821C0 21.6164 21.6223 0 48.2905 0C74.9588 0 96.5735 21.6164 96.5735 48.2821C96.5735 48.7151 96.5698 49.1519 96.5585 49.5811C96.069 68.144 85.0997 84.0937 69.348 91.7409C67.2129 92.7764 64.9911 93.6612 62.6979 94.3766C58.1452 95.7999 53.3064 96.5642 48.2905 96.5642ZM48.2905 6.76996C25.3578 6.76996 6.77062 25.3554 6.77062 48.2821C6.77062 71.2089 25.3578 89.7943 48.2905 89.7943C71.2195 89.7943 89.8067 71.2089 89.8067 48.2821C89.8067 25.3554 71.2195 6.76996 48.2905 6.76996Z" fill="url(#paint0_linear_16932_64064)"/>
<path fill-rule="evenodd" clip-rule="evenodd" d="M51.1619 14.8419L59.3145 19.62C59.7663 19.8836 60.2521 20.0832 60.7567 20.215L69.8997 22.6021C71.8879 23.1218 73.4431 24.6768 73.9628 26.6686L76.3502 35.8107C76.482 36.3153 76.6816 36.801 76.9489 37.2491L81.7275 45.4009C82.7669 47.1781 82.7669 49.377 81.7275 51.1505L76.9489 59.3023C76.6816 59.7504 76.482 60.2361 76.3502 60.7406L73.9628 69.8827C73.4431 71.8745 71.8879 73.4296 69.8997 73.9492L60.7567 76.3364C60.2521 76.4682 59.7663 76.6677 59.3145 76.9313L51.1619 81.7094C49.3882 82.7487 47.1853 82.7487 45.4117 81.7094L37.2591 76.9313C36.8072 76.6677 36.329 76.4682 35.8244 76.3364L26.6777 73.9492C24.6894 73.4296 23.1342 71.8745 22.6145 69.8827L20.2271 60.7406C20.0953 60.2361 19.8958 59.7504 19.6284 59.3023L14.8498 51.1505C13.8105 49.3733 13.8105 47.1743 14.8498 45.4009L19.6284 37.2491C19.892 36.7972 20.0953 36.3153 20.2271 35.8107L22.6145 26.6686C23.1342 24.6768 24.6894 23.1218 26.6777 22.6021L35.8244 20.215C36.329 20.0832 36.8072 19.8836 37.2591 19.62L45.4117 14.8419C47.1853 13.8027 49.3882 13.8027 51.1619 14.8419Z" fill="url(#paint1_linear_16932_64064)"/>
<path fill-rule="evenodd" clip-rule="evenodd" d="M48.2878 89.8011C25.3588 89.8011 6.77539 71.2195 6.77539 48.2927C6.77539 25.3659 25.3588 6.76172 48.2878 6.76172C71.2168 6.76172 89.8002 25.3697 89.8002 48.2927C89.8002 71.2195 71.2168 89.8011 48.2878 89.8011ZM48.2878 8.77614C26.4772 8.77614 8.76741 26.4579 8.76741 48.2927C8.76741 70.1012 26.4734 87.7829 48.2878 87.7829C70.0984 87.7829 87.8082 70.1012 87.8082 48.2927C87.8082 26.4579 70.1021 8.77614 48.2878 8.77614Z" fill="#EC6808" stroke="#EC6808" stroke-width="0.774646" stroke-miterlimit="2.61313"/>
<path fill-rule="evenodd" clip-rule="evenodd" d="M40.8041 50.5674L40.8004 48.0898C40.1451 48.4024 39.151 49.3625 38.5862 49.916C37.5807 50.8987 36.4021 52.2919 36.741 53.5382C37.046 54.6715 38.5862 55.0933 40.2054 55.0142C39.3506 54.4645 38.4393 54.1482 39.0343 52.6985C39.3242 51.9944 40.3824 50.782 40.8041 50.5749V50.5674Z" fill="#E64A02"/>
<path fill-rule="evenodd" clip-rule="evenodd" d="M55.2454 47.6904C55.2416 47.2461 55.2341 46.7679 55.2266 46.3236V47.6904H55.2454ZM55.2266 44.7459L55.2303 44.7083C55.3207 44.6104 55.9571 44.7572 56.4617 45.066C57.3353 45.5969 57.2224 46.493 56.9324 47.3741C58.6797 45.9697 59.6813 42.5433 55.2266 42.7089V44.7459Z" fill="#E64A02"/>
<path fill-rule="evenodd" clip-rule="evenodd" d="M40.8015 44.1079L40.7864 55.4941C37.7852 55.7464 35.0589 55.4903 36.0681 52.2635C35.507 52.6325 34.8781 53.6303 34.5581 54.3193C34.1288 55.2343 34.0987 56.4429 34.671 57.1207C35.7518 58.4009 38.8358 58.1637 40.7864 58.0206C40.8843 58.9506 41.2722 59.1314 41.9575 59.5719C42.5149 59.9296 43.0797 60.3212 43.7048 60.6337C44.4692 61.0178 46.5177 62.4712 47.1579 62.6858C47.301 59.9936 47.173 50.362 47.173 48.1895L44.8081 48.1593C44.8759 46.9507 47.1767 44.4016 47.1767 43.2871L47.1692 37.8086C46.6721 37.8237 43.3697 39.5218 42.9479 39.8418C41.8672 40.6627 40.8053 42.0972 40.8053 44.1117L40.8015 44.1079Z" fill="#E64A02"/>
<path fill-rule="evenodd" clip-rule="evenodd" d="M48.8876 40.8219C48.8876 43.5668 48.6315 43.0999 50.1378 45.6302L51.3277 47.7237C51.5235 48.4466 50.7403 48.119 48.88 48.1981L48.8725 55.6119C50.6838 55.371 57.0477 51.4626 58.8364 49.8661C59.8682 48.9436 61.7887 47.1627 62.2368 45.3967C62.9108 42.7498 59.9774 42.1285 57.6766 42.2942C59.9096 42.9606 59.936 44.4705 58.6481 46.2816C58.1209 47.0271 57.654 47.4902 57.0251 48.0626L55.2741 49.5197L55.2101 33.875L50.7064 35.9948C48.8085 36.9362 48.8951 38.2766 48.8838 40.8219H48.8876Z" fill="#E64A02"/>
<defs>
<linearGradient id="paint0_linear_16932_64064" x1="48.2905" y1="-0.00376528" x2="48.2905" y2="96.5642" gradientUnits="userSpaceOnUse">
<stop stop-color="#F2C043"/>
<stop offset="1" stop-color="#F27900"/>
</linearGradient>
<linearGradient id="paint1_linear_16932_64064" x1="48.2887" y1="14.3223" x2="48.2887" y2="82.2366" gradientUnits="userSpaceOnUse">
<stop stop-color="#F2C043"/>
<stop offset="0.98" stop-color="#F27900"/>
</linearGradient>
</defs>
</svg>
