<svg width="77" height="83" viewBox="0 0 77 83" fill="none" xmlns="http://www.w3.org/2000/svg">
<path d="M29.3051 2.35795C34.7506 -0.785985 41.4597 -0.785984 46.9051 2.35795L67.4102 14.1966C72.8557 17.3405 76.2102 23.1508 76.2102 29.4386V53.1159C76.2102 59.4038 72.8557 65.214 67.4102 68.358L46.9051 80.1966C41.4597 83.3405 34.7506 83.3405 29.3051 80.1966L8.8 68.358C3.35454 65.214 0 59.4038 0 53.1159V29.4386C0 23.1508 3.35454 17.3405 8.8 14.1966L29.3051 2.35795Z" fill="url(#paint0_linear_0_1)"/>
<g clip-path="url(#clip0_0_1)">
<g clip-path="url(#clip1_0_1)">
<path d="M49.8203 61.793H50.293V61.8868H50.1102V62.4477H50.0054V61.8868H49.8203V61.793Z" fill="white"/>
<path d="M50.4745 61.793H50.6573L50.8022 62.3069L50.945 61.793H51.1278V62.4477H51.0185V61.9092L50.8647 62.4209H50.7554L50.6016 61.9092H50.5726V62.4477H50.4678L50.4745 61.793Z" fill="white"/>
<path d="M40.0085 31.4492C39.8814 32.4168 39.3663 34.4593 39.6183 35.695C39.9438 37.2861 41.1613 37.2012 41.6117 36.4168C41.9107 35.8045 41.9788 35.1045 41.8035 34.4459C41.5347 33.2826 40.9066 32.2339 40.0085 31.4492ZM41.0944 35.9967C40.9428 36.3386 40.4857 36.3386 40.3184 35.5788C40.1713 34.9084 40.3831 33.6101 40.45 33.0403C40.7626 33.5185 40.989 34.0479 41.119 34.6045C41.2505 35.0605 41.242 35.5457 41.0944 35.9967Z" fill="white"/>
<path d="M39.614 38.9688C38.9353 39.0148 38.2962 39.3053 37.8145 39.7866C36.9462 40.6003 36.3543 41.6663 36.1221 42.8347C37.014 42.4615 39.0454 41.885 39.9863 41.047C41.2061 39.9721 40.5148 38.9688 39.614 38.9688ZM39.5382 40.5084C39.0342 40.971 37.8034 41.4358 37.2771 41.6637C37.5346 41.1544 37.8787 40.6938 38.2939 40.3028C38.6237 39.9623 39.0478 39.7288 39.5114 39.6324C39.8815 39.5788 40.109 39.9743 39.5382 40.4995V40.5084Z" fill="white"/>
<path d="M59.7147 20.3694C59.6581 20.2791 59.5819 20.2027 59.4917 20.146C59.5244 19.9958 59.5074 19.8391 59.4432 19.6995C59.379 19.56 59.2711 19.4452 59.1359 19.3727C59.0007 19.3001 58.8456 19.2738 58.6941 19.2976C58.5426 19.3214 58.403 19.3941 58.2965 19.5046L57.9085 19.9069L57.1704 20.1996C56.9253 20.1151 56.6606 20.1058 56.4101 20.1728C56.3076 20.204 56.1982 20.204 56.0957 20.1728C55.7532 20.0943 55.3955 20.1168 55.0655 20.2376C54.8437 20.2331 54.6232 20.2726 54.4166 20.3538C54.1086 20.4756 53.846 20.6903 53.6652 20.9683L53.5983 21.0532C52.5837 21.3124 52.1444 21.8756 51.9527 22.3091C51.8952 22.4412 51.8519 22.579 51.8233 22.7203C51.6372 22.5809 51.4378 22.4604 51.228 22.3605C50.0506 21.8197 48.5344 22.0454 47.4551 22.9191C46.3045 23.851 45.8474 25.2879 46.1975 26.8588C46.3568 27.5364 46.6193 28.1853 46.9757 28.7828C47.774 30.1705 48.9826 31.451 50.1532 32.689C51.1834 33.7817 52.16 34.8141 52.7153 35.7817C52.7509 35.8421 52.7844 35.9024 52.8134 35.9605C53.5381 37.3393 53.4043 38.3538 52.4165 38.975C52.0997 39.172 51.7433 39.2964 51.3729 39.3393C51.723 38.318 51.8746 36.8812 51.1076 35.5538C50.9555 35.2898 50.7762 35.0426 50.5724 34.8164C49.1275 33.2298 47.5934 33.5828 46.9846 33.9918C46.8532 34.0799 46.7552 34.2099 46.7066 34.3608C46.6581 34.5117 46.6617 34.6745 46.7171 34.8231C46.7307 34.86 46.7471 34.8958 46.7661 34.9303C46.8346 35.0484 46.9356 35.1441 47.057 35.2059C47.1785 35.2677 47.3152 35.2931 47.4507 35.2789C48.0929 35.2007 48.8019 35.6275 49.2122 36.3426C49.4161 36.6887 49.5222 37.0839 49.5191 37.4859C49.5159 37.8878 49.4037 38.2813 49.1944 38.6242C48.8441 38.3351 48.5161 38.0199 48.2133 37.6812L48.0906 37.5493L48.017 37.4711C46.8196 36.1527 45.6445 35.4085 44.514 35.2543C44.4899 34.32 44.2348 33.4063 43.7715 32.5951C43.1669 31.5104 42.3178 30.5822 41.2919 29.8845C41.1371 29.7746 40.9755 29.6746 40.808 29.5851C40.4156 26.613 38.4556 25.0711 36.6963 24.6175C35.6889 24.3469 34.6219 24.4031 33.6484 24.7781C32.6749 25.1531 31.845 25.8275 31.2778 26.7046C31.1752 26.8588 31.0749 27.0219 30.979 27.1895C30.0871 28.7359 29.5764 30.5415 29.0814 32.2778C28.66 33.7594 28.2742 35.1583 27.67 36.289L27.5629 36.4812C27.1682 37.165 26.8204 37.5426 26.448 37.6633C26.333 37.7009 26.2107 37.71 26.0914 37.6897C25.9722 37.6695 25.8597 37.6205 25.7635 37.5471C25.3911 37.2923 25.4803 36.7717 25.8103 35.7705C25.9065 35.5019 25.9847 35.2272 26.0444 34.9482C26.1066 34.6493 26.1059 34.3406 26.0421 34.042C25.9784 33.7434 25.8531 33.4614 25.6743 33.2141C25.4998 32.9949 25.2815 32.8147 25.0335 32.685C24.7854 32.5553 24.513 32.479 24.2338 32.461C23.6674 32.4119 22.8491 32.6018 22.169 33.7817C22.111 33.8845 22.062 33.9761 22.0241 34.0521C21.9386 33.7799 21.7869 33.5334 21.5825 33.3348C21.3781 33.1362 21.1275 32.9918 20.8534 32.9147C20.5709 32.7057 20.2357 32.5803 19.8857 32.5527C19.7761 32.5464 19.6701 32.5118 19.5779 32.4521C19.3403 32.3058 19.0618 32.2408 18.7841 32.2666L18.191 31.7974L17.9279 31.3013C17.8698 31.1889 17.7826 31.0942 17.6754 31.0272C17.5682 30.9601 17.4451 30.9232 17.3188 30.9202C17.1925 30.9173 17.0678 30.9484 16.9576 31.0103C16.8474 31.0722 16.7559 31.1627 16.6926 31.2722C16.6392 31.3669 16.6072 31.4722 16.5989 31.5806C16.4309 31.6337 16.2886 31.7476 16.1998 31.9002C16.1539 31.9825 16.1237 32.0727 16.1106 32.1661C16.0899 32.3377 16.1327 32.5109 16.2309 32.653C16.3291 32.7951 16.4759 32.8962 16.6435 32.937L17.1965 33.0733L17.8208 33.565C17.8728 33.8182 17.9967 34.051 18.1776 34.2353C18.2557 34.3065 18.3115 34.3989 18.3382 34.5013C18.4409 34.8414 18.639 35.1447 18.909 35.375C19.0164 35.5685 19.1603 35.7392 19.3327 35.8778C19.5939 36.0861 19.9135 36.2072 20.2469 36.2242L20.3539 36.2398C21.0853 36.9884 21.7899 37.089 22.2604 37.0376C22.4032 37.022 22.5438 36.9905 22.6796 36.9437C22.6538 37.1752 22.6501 37.4087 22.6685 37.6409C22.7889 38.9326 23.741 40.137 25.0388 40.6376C26.4168 41.1694 27.8885 40.861 29.0703 39.7594C29.5763 39.2823 30.0058 38.7298 30.3435 38.1214C31.1418 36.7359 31.6457 35.0443 32.1274 33.4108C32.5555 31.9694 32.9569 30.6063 33.5165 29.6409L33.6213 29.4666C34.4531 28.1482 35.4052 27.7571 36.4264 28.3046C36.7563 28.4784 37.0422 28.7253 37.2626 29.0264C36.2057 29.2342 34.8923 29.8085 34.1253 31.1493C33.9718 31.4166 33.8477 31.6999 33.7551 31.994C33.1062 34.0432 34.1788 35.1985 34.8366 35.5225C34.9789 35.593 35.1408 35.6133 35.296 35.5801C35.4512 35.5469 35.5907 35.4621 35.6919 35.3395C35.793 35.2169 35.8499 35.0637 35.8533 34.9047C35.8568 34.7456 35.8065 34.5901 35.7107 34.4633C35.3205 33.9471 35.3361 33.1225 35.7486 32.4029C35.9469 32.0546 36.2358 31.7668 36.5845 31.57C36.9332 31.3732 37.3286 31.275 37.7287 31.2856C37.6573 31.7315 37.553 32.1715 37.4165 32.6018C37.3964 32.6622 37.3786 32.7203 37.363 32.7739C37.3474 32.8275 37.3451 32.8342 37.3318 32.8767C36.7921 34.5772 36.7364 35.9672 37.1667 37.0264C36.3724 37.5153 35.7106 38.1931 35.2402 38.9996C34.6065 40.0676 34.2294 41.2687 34.1387 42.508C34.1279 42.6963 34.1279 42.885 34.1387 43.0733C31.7617 44.9035 31.4071 47.375 31.9088 49.1292C32.1781 50.1389 32.7597 51.0371 33.5702 51.6947C34.3807 52.3524 35.3783 52.7357 36.4198 52.7895C36.6048 52.7895 36.7966 52.8052 36.9884 52.8052C38.7722 52.8052 40.5806 52.3583 42.3399 51.9113C43.8317 51.5359 45.2387 51.1828 46.5075 51.1359H46.7304C47.5198 51.1359 48.0215 51.2499 48.3092 51.5091C48.3992 51.5901 48.4684 51.6918 48.5107 51.8054C48.5531 51.919 48.5673 52.0413 48.5522 52.1616C48.5165 52.6085 48.0215 52.794 46.9913 53.0085C46.7116 53.0596 46.4359 53.1305 46.1663 53.2208C45.8768 53.3157 45.6104 53.4704 45.3842 53.6747C45.158 53.8791 44.977 54.1287 44.8529 54.4074C44.7497 54.6682 44.7025 54.9479 44.7144 55.2282C44.7263 55.5085 44.7971 55.7832 44.9221 56.0342C45.1629 56.5504 45.7359 57.165 47.0961 57.165C47.2143 57.165 47.3191 57.165 47.4016 57.165C47.1652 57.4217 47.01 57.7428 46.9557 58.0879C46.9239 58.3116 46.9368 58.5395 46.9936 58.7583C46.9526 59.1079 47.0113 59.462 47.163 59.7795C47.2167 59.8771 47.2422 59.9877 47.2366 60.099C47.234 60.3754 47.3191 60.6453 47.4797 60.87L47.3704 61.6208L47.0649 62.1013C46.997 62.2079 46.9589 62.331 46.9547 62.4574C46.9504 62.5839 46.9802 62.7092 47.0408 62.8202C47.1014 62.9312 47.1907 63.0238 47.2993 63.0884C47.4079 63.153 47.5318 63.1872 47.658 63.1873C47.7664 63.1873 47.8733 63.1621 47.9702 63.1136C48.1 63.2341 48.2704 63.3012 48.4474 63.3013C48.5409 63.3013 48.6335 63.2823 48.7194 63.2454C48.879 63.1783 49.0084 63.0546 49.0828 62.898C49.1573 62.7414 49.1716 62.5628 49.123 62.3962L48.9625 61.8488L49.0762 61.0599C49.2714 60.8893 49.4119 60.6646 49.4798 60.4141C49.5035 60.3095 49.5569 60.214 49.6337 60.1393C49.8722 59.8806 50.0317 59.5587 50.093 59.2119C50.2068 59.0212 50.2825 58.8102 50.316 58.5907C50.3638 58.2626 50.3092 57.9278 50.1599 57.632C50.1465 57.6007 50.1309 57.5627 50.1198 57.5292C50.4007 56.5214 50.1354 55.8577 49.8566 55.4756C49.7718 55.3589 49.6738 55.2524 49.5645 55.1583C49.7779 55.0659 49.9818 54.9529 50.1733 54.8208C51.2302 54.07 51.7944 52.6398 51.5781 51.2655C51.3551 49.8018 50.3361 48.6867 48.8019 48.2041C48.1368 48.004 47.4449 47.9075 46.7505 47.918C45.154 47.918 43.4415 48.327 41.7869 48.7225C40.3264 49.0711 38.9461 49.3929 37.8335 49.3929H37.6306C36.0697 49.3303 35.2669 48.7069 35.2246 47.5404C35.2108 47.1668 35.2809 46.7949 35.4297 46.4521C36.1388 47.2655 37.2983 48.1147 38.8324 48.1147C39.1406 48.1143 39.4479 48.0806 39.7489 48.0141C41.8427 47.5516 42.3042 46.0454 42.2574 45.3124C42.2457 45.1545 42.1813 45.0052 42.0747 44.8883C41.9681 44.7715 41.8254 44.694 41.6695 44.6682C41.5136 44.6424 41.3536 44.6699 41.2151 44.7462C41.0767 44.8225 40.9679 44.9432 40.9062 45.089C40.652 45.6856 39.9295 46.0856 39.1045 46.0856C38.7037 46.0888 38.3096 45.9831 37.9641 45.7796C37.6185 45.5762 37.3345 45.2827 37.1422 44.9303C37.5676 44.7702 38.0044 44.6424 38.4489 44.5482L38.6228 44.508L38.7276 44.4856C40.4669 44.1035 41.6955 43.4555 42.3957 42.5527C43.2174 42.999 44.1368 43.2339 45.0715 43.2365C46.3114 43.2544 47.5384 42.982 48.6548 42.4409C48.8247 42.3585 48.99 42.2668 49.1498 42.1661C51.9192 43.3169 54.2315 42.3895 55.5025 41.0845C56.2401 40.3394 56.7218 39.3784 56.8777 38.3406C57.0337 37.3028 56.8558 36.2422 56.3699 35.3124C56.2874 35.1471 56.196 34.9772 56.1001 34.8119C55.2082 33.2655 53.9105 31.9203 52.6528 30.6197C51.5825 29.5024 50.5724 28.47 49.899 27.3929C49.8589 27.3303 49.821 27.2655 49.7853 27.2052C49.3906 26.5191 49.239 26.0275 49.3193 25.6409C49.3447 25.522 49.3986 25.4111 49.4763 25.3177C49.5539 25.2243 49.6531 25.1511 49.7652 25.1046C50.1711 24.908 50.5769 25.2476 51.277 26.0342C51.4612 26.2497 51.6593 26.4528 51.8702 26.642C52.0974 26.8462 52.3648 27.0004 52.6552 27.0947C52.9455 27.189 53.2524 27.2213 53.5559 27.1895C53.8326 27.1478 54.0976 27.0485 54.3338 26.898C54.5699 26.7475 54.7721 26.5492 54.9272 26.3158C55.2506 25.8488 55.4959 25.0443 54.8158 23.8577C54.7578 23.7549 54.702 23.6677 54.6574 23.5962C54.9959 23.6687 55.3481 23.6392 55.6698 23.5113C55.8769 23.4277 56.0656 23.3039 56.225 23.1471C56.5471 23.0081 56.8232 22.7802 57.021 22.4901C57.0799 22.3953 57.1631 22.3182 57.2619 22.2666C57.5021 22.1314 57.6934 21.9233 57.8082 21.6722L58.5083 21.3907L59.0769 21.4175C59.2515 21.4254 59.4228 21.3681 59.5575 21.2566C59.6922 21.1451 59.7808 20.9874 59.8061 20.8141C59.8262 20.6598 59.794 20.5032 59.7147 20.3694ZM58.3768 20.6912L57.1794 21.1717C57.191 21.2738 57.1699 21.377 57.1189 21.4662C57.068 21.5555 56.9899 21.6261 56.8962 21.6677C56.3209 22.0052 56.535 22.2599 55.8303 22.5616C55.6854 22.6219 55.808 22.6823 55.3643 22.8879C55.0544 23.0309 54.5905 22.8432 54.3542 22.8879C54.1178 22.9326 53.5693 23.2275 53.9818 23.8778C54.1669 24.1705 54.8737 25.1471 54.3363 25.918C53.8703 26.5884 53.0564 26.7292 52.3117 26.1057C51.6427 25.5426 50.6973 23.8711 49.4486 24.4722C48.1531 25.0979 48.5321 26.546 49.2947 27.7661C50.9069 30.3404 54.2382 32.6443 55.7344 35.6275C57.5696 39.2856 53.712 43.565 49.0294 41.3326C48.8028 41.5058 48.5592 41.6555 48.3025 41.7795C46.2956 42.7538 43.6845 42.8253 42.137 41.5203C41.4146 43.2432 38.8614 43.6901 38.4221 43.7951C37.6456 43.9371 36.8943 44.1932 36.1923 44.5549C37.0842 47.5091 40.7055 47.2208 41.5037 45.337C41.5037 45.337 41.6041 46.8521 39.5482 47.3035C37.3986 47.7817 35.8556 46.1214 35.3896 45.1828C35.0923 45.4977 34.8603 45.8687 34.7072 46.2742C34.5541 46.6796 34.4829 47.1116 34.4977 47.5448C34.5445 48.8097 35.3361 49.9895 37.5793 50.0789C40.6207 50.1974 45.348 47.8443 48.57 48.8521C51.4688 49.7638 51.4175 53.0309 49.7429 54.2152C49.1899 54.6085 48.1664 54.8856 47.4997 54.9214C47.163 54.9393 47.143 55.0957 47.1719 55.1851C47.2009 55.2745 47.3949 55.3102 47.6826 55.2812C48.7507 55.1784 49.8968 55.8018 49.3884 57.413C49.3081 57.6655 49.6738 58.0834 49.6114 58.4186C49.5133 58.899 49.4285 58.794 49.404 58.9482C49.2747 59.7057 48.958 59.5493 48.7841 60.1929C48.7684 60.2875 48.7244 60.3752 48.6579 60.4442C48.5914 60.5132 48.5056 60.5604 48.4117 60.5795L48.2266 61.8711L48.4296 62.5661L48.0839 61.9873L47.6268 62.4611L48.0148 61.851L48.1999 60.5705C48.1051 60.5303 48.0257 60.4606 47.9735 60.3717C47.9212 60.2827 47.899 60.1793 47.91 60.0767C47.91 59.4063 47.58 59.4666 47.6737 58.7046C47.6937 58.5504 47.5822 58.6264 47.6268 58.1393C47.6558 57.7996 48.0505 57.4912 48.1263 57.2588C48.2021 57.0264 48.2244 56.4097 47.4574 56.4409C47.1117 56.4543 45.9143 56.5795 45.5174 55.7303C45.1696 54.9884 45.4572 54.213 46.367 53.8778C47.1876 53.5761 49.1052 53.5962 49.21 52.2108C49.317 50.7717 47.8721 50.3784 46.4406 50.4231C43.4102 50.5348 39.7511 52.2756 36.4264 52.0812C32.3503 51.8443 30.5776 46.3583 34.85 43.4085C34.8141 43.1262 34.8074 42.8409 34.8299 42.5571C34.9927 40.3225 36.2347 38.0253 38.1367 37.3348C37.0084 35.8465 37.8981 33.4063 38.0275 32.975C38.2871 32.2313 38.4374 31.4537 38.4734 30.6666C35.4743 29.9627 33.9134 33.2521 35.1287 34.8856C35.1287 34.8856 33.7707 34.2152 34.4085 32.2041C35.0774 30.0812 37.2782 29.5761 38.3307 29.6387C38.2092 29.2237 38.0066 28.837 37.7349 28.5009C37.4631 28.1649 37.1275 27.8863 36.7475 27.6812C35.6326 27.089 34.2167 27.1873 33.0171 29.089C31.396 31.6677 31.0771 36.9594 28.5909 39.2387C26.361 41.299 23.5559 39.6231 23.3642 37.5739C23.3017 36.9035 23.5872 35.8711 23.877 35.2767C24.0309 34.9728 23.906 34.8789 23.8146 34.8588C23.6897 34.8298 23.5916 34.9862 23.4757 35.2543C23.0297 36.2331 21.9148 36.9169 20.7798 35.6677C20.6014 35.4733 20.0574 35.5784 19.8032 35.3527C19.4352 35.0264 19.569 35.0063 19.4486 34.9057C18.8599 34.4141 19.1476 34.2353 18.6838 33.746C18.6098 33.6851 18.556 33.6031 18.5297 33.5109C18.5034 33.4187 18.5058 33.3206 18.5366 33.2298L17.5109 32.4231L16.8107 32.251H17.4797L17.3035 31.6253L17.6358 32.2666L18.6503 33.0666C18.7332 33.006 18.8331 32.9733 18.9358 32.9733C19.0384 32.9733 19.1383 33.006 19.2212 33.0666C19.7987 33.3996 19.9124 33.0845 20.5256 33.5471C20.6483 33.6409 20.6393 33.5046 21.0385 33.7884C21.3172 33.9851 21.3863 34.4812 21.5469 34.6622C21.7074 34.8432 22.2337 35.1739 22.5904 34.4901C22.751 34.1839 23.2415 33.0823 24.1736 33.1627C24.9897 33.232 25.5115 33.8689 25.3487 34.8253C25.1993 35.6901 24.2338 37.3437 25.371 38.1259C26.5573 38.9393 27.6187 37.8867 28.2921 36.613C29.7102 33.9314 30.0358 29.8845 31.8598 27.0934C34.103 23.6745 39.731 24.8812 40.1413 30.061C40.4068 30.1742 40.6601 30.3142 40.8972 30.4789C42.7458 31.737 44.1082 33.9627 43.7536 35.9583C45.6066 35.7348 47.2701 37.7169 47.5778 38.0454C48.0877 38.6447 48.6828 39.1657 49.3438 39.5918C51.4532 37.3415 49.3906 34.3404 47.3659 34.5884C47.3659 34.5884 48.6236 33.746 50.0417 35.3035C51.5402 36.9504 50.8779 39.1024 50.2981 39.9962C50.7222 40.098 51.1623 40.1134 51.5924 40.0416C52.0226 39.9698 52.4339 39.8123 52.8022 39.5784C53.8703 38.908 54.4947 37.6298 53.4489 35.6387C52.0196 32.937 47.6201 30.0141 46.8843 26.7113C46.2154 23.7415 49.0695 22.1504 50.9359 23.0108C51.5513 23.2923 52.3005 24.0432 52.6662 24.6041C52.8513 24.8879 52.994 24.8275 53.0587 24.7582C53.1233 24.689 53.0587 24.5057 52.8847 24.2644C52.2626 23.3907 52.2292 22.0834 53.877 21.7191C54.1334 21.6633 54.323 21.1359 54.6374 21.0309C55.1012 20.8722 55.0521 20.9996 55.1993 20.9437C55.924 20.6778 55.9374 21.0242 56.5929 20.87C56.6827 20.8367 56.7804 20.8314 56.8731 20.855C56.9659 20.8785 57.0494 20.9297 57.1125 21.0018L58.321 20.5147L58.8227 19.9761L58.4794 20.5571L59.1193 20.718L58.3768 20.6912Z" fill="white"/>
<path d="M42.8088 39.4136C43.1879 39.9801 43.7591 40.3898 44.4165 40.5666C45.5529 40.9145 46.7697 40.8957 47.895 40.513C47.1235 39.9186 45.6139 38.4504 44.4232 38.0549C42.8913 37.5387 42.3561 38.6381 42.8088 39.4136ZM44.6216 39.8918C44.1654 39.7812 43.7524 39.5369 43.4354 39.1901C43.2124 38.8884 43.4354 38.4907 44.1846 38.7253C44.8335 38.9309 45.8525 39.7666 46.3118 40.1085C45.7405 40.139 45.1683 40.0679 44.6216 39.8985V39.8918Z" fill="white"/>
</g>
</g>
<defs>
<linearGradient id="paint0_linear_0_1" x1="38.1051" y1="0" x2="38.1051" y2="82.5545" gradientUnits="userSpaceOnUse">
<stop stop-color="#0D1D12"/>
<stop offset="1"/>
</linearGradient>
<clipPath id="clip0_0_1">
<rect width="44" height="44" fill="white" transform="translate(16.1055 19.2773)"/>
</clipPath>
<clipPath id="clip1_0_1">
<rect width="43.7067" height="44" fill="white" transform="translate(16.1055 19.2773)"/>
</clipPath>
</defs>
</svg>
